<?xml version="1.0" encoding="utf-8"?>
<!-- Generator: Adobe Illustrator 25.2.0, SVG Export Plug-In . SVG Version: 6.00 Build 0)  -->
<svg version="1.1" id="Ebene_1" xmlns="http://www.w3.org/2000/svg" xmlns:xlink="http://www.w3.org/1999/xlink" x="0px" y="0px"
	 viewBox="0 0 741.22 395.62" enable-background="new 0 0 741.22 395.62" xml:space="preserve">
<path d="M0,0v395.62h741.22V0H0z M580.67,266.79c18.05,0,32.73,15.53,32.73,34.62s-14.68,34.62-32.73,34.62
	c-18.05,0-32.73-15.53-32.73-34.62S562.62,266.79,580.67,266.79z M621.82,312.12c0.24-2.34,0.67-8.01,0.04-14.98
	c-0.75-8.34-3.23-20.13-10.8-28.91c-7.11-8.25-17.39-12.48-30.57-12.58c-0.16,0-0.31,0-0.47,0c-13.04,0-23.18,4.1-30.12,12.18
	c-7.53,8.76-9.83,20.66-10.44,29.11c-0.51,7.05,0.03,12.81,0.32,15.18h-0.85c-0.75-6.89-4.49-52.86,27.81-62.04l0.73-0.21v-7
	l11.23-0.44c28.58,0,38.24,23.41,38.33,23.65l0.25,0.63h0.1c6.78,13.02,7.41,41.62,7.42,41.91l0.02,0.98h24.98v-42.89v-1v-91.09
	h-0.03c0.01-0.05,0.03-0.08,0.04-0.13c0.02-0.11,0.04-0.25,0.06-0.39c1.92,2.85,5.86,6.93,12.98,7.97l2.96,22.22v58.93h-6.06v10.72
	h5.98l-2.85,38.17H621.82z M491.89,287.66v17.43h-79.68l-3-12.88h-73.95c-3.72-21.16-17.21-31.46-30.9-34.7l245.77-0.19l-0.6,0.76
	c-7.07,8.44-11.32,18.65-12.34,29.58H491.89z M293.88,266.72c18.05,0,32.73,15.53,32.73,34.62s-14.68,34.62-32.73,34.62
	s-32.73-15.53-32.73-34.62S275.83,266.72,293.88,266.72z M253.97,286.43h-2.88c-3.48-14.4-13.48-24.91-26.74-28.86l60.1-0.05
	C271.19,260.59,258.25,269.81,253.97,286.43z M211.3,266.72c18.05,0,32.73,15.53,32.73,34.62s-14.68,34.62-32.73,34.62
	s-32.73-15.53-32.73-34.62S193.25,266.72,211.3,266.72z M618.61,264.72c-0.79-1.74-3.36-6.77-8.47-11.85
	c-5.59-5.55-15.37-12.14-30.46-12.42l0-109.46c0.01-0.35,0.43-8.57,7.51-8.9c7.95-0.38,41.03,0,41.37,0c2.93,0,7.34,0.57,9.36,2
	c-0.84-0.04-1.4,0-1.47,0l-0.92,0.07v4.64l1.05-0.05c2.7-0.13,4.78,0.58,6.2,2.08c0.85,0.9,1.39,2.02,1.73,3.13
	c-0.12-0.1-0.24-0.2-0.36-0.3c-0.96-0.77-2.37-0.62-3.14,0.34c-0.31,0.39-0.48,0.87-0.49,1.39l0.2,19.67
	c0.01,0.63,0.26,1.23,0.72,1.67c0.46,0.44,1.1,0.66,1.69,0.67c0.73-0.01,1.41-0.35,1.85-0.93c0.01-0.01,0.02-0.02,0.03-0.04
	l-0.04,2.54c-0.47-0.06-0.98-0.01-1.48,0.24c-1.18,0.6-1.84,2.08-2.01,4.51c-1.43-10.59-3.64-25.99-4.97-30.55
	c-2.13-7.33-11.52-7.18-11.6-7.18h-31.83c-1.81,0-3.28,0.6-4.36,1.78c-2.34,2.56-1.97,6.93-1.95,7.07c0,0.18-0.25,18.02,0,25.52v0
	c0.27,7.89,6.16,9.05,6.22,9.07c0.31,0.06,30.92,5.59,40.65,8.08c1.81,0.47,3.37,0.7,4.67,0.7c1.34,0,2.38-0.26,3.16-0.75
	l-0.04,2.27l1.04-0.02c0.18,0,3.2-0.09,5.35-1.86v86.88H618.61z M647.79,266.72v40.89h-21.03c-0.16-5.14-1.21-28.42-7.15-40.89
	H647.79z M642.72,172.47c0.6,0.56,1.3,0.61,1.93,0.59c0.03,0.22,0.05,0.88-0.26,1.17c-0.25,0.23-0.81,0.27-1.54,0.12
	c-0.01-0.09-0.03-0.16-0.03-0.16c-0.02-0.17-0.1-0.82-0.24-1.84C642.63,172.38,642.68,172.43,642.72,172.47z M643.44,177.59
	l0.02-1.15c0.97,0.03,1.74-0.22,2.31-0.76c1.03-0.97,0.92-2.44,0.87-2.86v-1.81h-1c-0.26,0-0.51,0.02-0.75,0.03
	c-0.35,0.02-0.72,0.05-0.8-0.03c-0.31-0.29-0.68-1.56-0.68-6c0-3.35,0.79-3.93,0.95-4.01c0.32-0.17,0.85,0.12,0.97,0.21l1.56,1.15
	l0.19-12.62l-2-0.08c0,0.04-0.26,3.72-1.72,5.6c-0.07,0.09-0.17,0.14-0.29,0.15c-0.12-0.01-0.22-0.06-0.26-0.1
	c-0.04-0.04-0.11-0.13-0.11-0.26l-0.2-19.65c0-0.05,0.02-0.1,0.05-0.14c0.08-0.1,0.22-0.12,0.34-0.03c1.26,0.98,2.03,2.46,2.1,4.06
	l1.99,0.07c0.03-0.25,0.67-6.21-2.75-9.88c-1.63-1.75-3.89-2.67-6.71-2.74v-0.66c1.72,0.05,5.46,0.46,8,2.97
	c1.48,1.46,2.34,3.44,2.59,5.9l0.15,30.75c-0.07,4.13-0.2,7.29-0.42,8.4C647.34,176.57,644.88,177.34,643.44,177.59z M642.77,123.29
	c-0.4,0.45-0.65,0.95-0.78,1.49c-0.44-0.13-0.86-0.24-1.28-0.33c-1.71-4.23-11.05-4.37-12.14-4.37c-0.33,0-33.47-0.38-41.48,0
	c-7.11,0.33-9.26,7.22-9.41,10.86v109.53l-11.1,0.43l-7.12-2.03V109.29l17.96,0.38l53.79,2.38c0.13,0,12.68,0.12,18.32,8.51
	C647.65,120.82,644.34,121.5,642.77,123.29z M74.97,94.14v-4.7h476.42v4.7H74.97z M551.39,96.14v158.93l-476.42,0.38V96.14H551.39z
	 M171.22,286.43l-80.83,0.11v-21.59l-15.54-0.19v-7.07l125.44-0.1C187.83,261.17,176.04,270.41,171.22,286.43z"/>
</svg>
