<?xml version="1.0" encoding="utf-8"?>
<!-- Generator: Adobe Illustrator 25.2.0, SVG Export Plug-In . SVG Version: 6.00 Build 0)  -->
<svg version="1.1" id="Ebene_1" xmlns="http://www.w3.org/2000/svg" xmlns:xlink="http://www.w3.org/1999/xlink" x="0px" y="0px"
	 viewBox="0 0 741.22 395.62" enable-background="new 0 0 741.22 395.62" xml:space="preserve">
<path d="M0,0v395.62h741.22V0H0z M507.61,256.3c0.03,0,0.06,0,0.09,0c0.76,0,1.46,0.31,2.13,0.95c5.06,4.8,6,25.5,6.18,34.17
	c0.23,11.56-1.28,31.55-8.4,33.15c-0.96,0.21-1.83,0-2.66-0.67c-5.15-4.13-6.3-23.61-6.3-30.11
	C498.64,282.14,500.9,256.51,507.61,256.3z M427.53,292.42c-9.01,0.91-13.99,1.4-23.96,2.38l-0.23,0.02
	c-0.72-10.06-2.6-24.26-9.75-35.65l-0.65-1.47c37.89-2.18,75.55-4.85,110.88-7.59c-7.96,5.81-9.16,28.07-9.7,38.31
	c-0.05,0.85-0.08,1.58-0.12,2.16l-0.92,0.11c-8.52,1.04-13.67,1.67-24.91,2.95l-0.82,0.09l-0.08,0.95
	c-0.48,5.97-0.74,9.18-1.21,15.18c-12.34,1.49-24.95,2.98-37.51,4.43c0.01-2.75,0.03-5.07,0.04-7.25c0.03-4.35,0.05-8.13,0.05-13.63
	v-1.11L427.53,292.42z M341.62,318.42c0.47-13.84,1.57-46.25,24.96-47.93c0.54-0.04,1.07-0.06,1.59-0.06
	c4.67,0,8.68,1.53,11.94,4.57c9.38,8.73,10.39,27.57,10.39,35.26c-0.04,10.27-1.92,44-24.57,47.12c-4.94,0.68-9.31-0.65-12.99-3.97
	c-4.93-4.45-7.65-11.56-9.06-16.75C342.28,330.78,341.43,323.96,341.62,318.42z M396.7,327.17l-1.97,0.23
	c2.7-35.98-4.57-51.51-11.19-58.2c-4.67-4.73-10.72-6.87-17.97-6.38c-6.9,0.47-12.69,3.38-17.22,8.64
	c-13.38,15.58-12.48,48.26-11.35,62.55l-3.36,0.67c-6.92,1.38-11.79,2.35-20.38,4.02l-2.03-0.21c-48.77-0.94-78.13-1.78-123.24-4.29
	c-4.43-0.31-10.33-8.94-10.55-17.51c39.81,1.47,69.28,1.96,106.53,2.57c8.58,0.14,17.61,0.29,27.31,0.46l0,0.15l21.82-2.69
	l0.04-0.84c0.71-14.31,1.52-30.52,6.93-44.17l-0.01,0l0.02-0.04c6.54-17.33,18.12-28.81,31.38-31.35c-0.05,3.06-0.05,4.86-0.05,8.15
	v0.78l0.75,0.19C401.36,257.4,398.14,307.3,396.7,327.17z M206.36,337.18c14.33,0.72,27.37,1.26,40.57,1.71
	c-5.41,9.05-12.56,12.95-17.56,13.55C221.93,353.35,212.1,348.94,206.36,337.18z M177.76,314.71v-43.28
	c34.94,1,62.33,1.57,93.99,2.22c12.42,0.26,25.45,0.52,39.8,0.84c-0.08,14.41-0.16,28.82-0.25,43.23
	c-9.7-0.17-18.72-0.32-27.29-0.46C246.85,316.65,217.43,316.17,177.76,314.71z M337.7,272.87c-4.94,13.37-5.81,28.77-6.49,42.53
	l-17.9,2.21c0.09-14.4,0.17-28.79,0.25-43.19L337.7,272.87z M334.31,105.78c-0.13,5.33-0.05,10.9,0.02,16.29
	c0.14,10.17,0.28,20.69-0.91,30.45c-0.37,3.07-2.97,3.67-4.42,3.77l0.01-0.42c0.02-0.55,0.03-1.06,0.04-1.62
	c0.89,0.07,1.49-0.22,1.88-0.52c1.32-1.04,1.18-3.15,1.13-3.61v-2.03l-0.97-0.02c-0.25-0.01-0.48,0.01-0.71,0.02
	c-0.2,0.01-0.52,0.03-0.59-0.01c-0.23-0.15-0.76-1.22-0.72-8.01c0.03-4.75,0.97-5.26,0.98-5.26c0.08-0.03,0.41,0.14,0.62,0.35
	l1.69,1.83l0.29-16.04l-2-0.07c0,0.05-0.28,4.85-1.71,7.18c-0.05,0.08-0.09,0.12-0.09,0.12c-0.09-0.02-0.36-0.28-0.36-0.84v-25.3
	c0-0.22,0.05-0.35,0.09-0.43c0.01,0.02,0.03,0.04,0.05,0.06c1.32,1.65,2.06,3.72,2.08,5.84l1.99,0.09
	c0.04-0.37,0.88-9.03-3.26-13.88c-1.46-1.71-3.35-2.73-5.63-3.05v-1.42C326.72,89.82,334.63,92.63,334.31,105.78z M322.91,92.58
	c2.08,0.15,3.72,0.94,4.99,2.43c0,0,0.01,0.01,0.01,0.01c-0.9,0.87-1.52,1.95-1.99,3.5c-0.2,0.57-0.35,1.15-0.45,1.74
	c-2.65,13.35-3.94,27.5-5.19,41.19c-0.38,4.13-0.75,8.26-1.16,12.35c-0.01,0.07-0.04,0.34-0.03,0.71c0,0.87,0.19,2.39,1.41,3.47
	c0.85,0.75,2.04,1.13,3.54,1.13c1.11,0,2.4-0.21,3.86-0.62c0.23-0.06,0.46-0.12,0.68-0.19c1.22-0.01,2.77-0.29,4.1-1.1
	c6.62-1.71,13.41-3.15,20.1-4.51c1.19-0.24,2.37-0.48,3.55-0.72c2.4-0.49,4.8-0.97,7.2-1.47c0.2-0.04,4.97-1.2,5.15-10.94
	c0.23-9.13,0.22-18.46,0.21-27.48l0-4.96c0.03-0.46,0.71-11.24-5.06-11.93l-27.47-3.28c-1.33-0.11-2.65,0.02-3.93,0.38
	c-2.7-3.28-6.15-4.51-8.09-4.95c2.52-2.24,8.49-1.61,8.57-1.6c2.37,0.26,4.75,0.5,7.14,0.75c9.41,0.98,19.14,1.98,28.36,3.7
	c4.54,0.84,5.7,9.45,5.76,12.67c-0.29,45.2-0.59,90.41-0.88,135.62c-14.7,1.76-27.64,13.76-34.83,32.34l-24.85,1.6
	c0.16-25.8,0.31-51.6,0.45-77.4c0.15-13,0.36-24.73,1.43-36.65C318.02,136.52,320.51,114.41,322.91,92.58z M563.86,81.55
	c-35.31-4.92-71.14-10.19-105.81-15.29c-21.15-3.11-43-6.33-64.53-9.43c0.01-2.4,0.03-4.8,0.04-7.21l14.6,2.13
	c51,7.44,103.73,15.13,155.7,22.06V81.55z M563.86,243.03c-0.96,0.08-1.92,0.16-2.88,0.24c-0.22,0.02-0.44,0.04-0.67,0.06
	c-0.01,0-0.02,0-0.03,0c-50.1,4.13-108.74,8.73-167.98,12.1c0.19-30.1,0.37-60.21,0.55-90.31c0.19-29.9,0.37-59.8,0.56-89.7
	l0.01-0.91l-0.01,0c0.03-5.22,0.07-10.44,0.1-15.66c21.43,3.09,43.19,6.29,64.25,9.39c34.76,5.11,70.7,10.4,106.1,15.33V243.03z
	 M525.96,248.37c-4.41,4.18-6.11,14.29-6.86,22.6c-0.88-7.65-2.73-16.88-6.87-20.56c-0.39-0.34-0.79-0.62-1.2-0.86
	C516.07,249.15,521.05,248.76,525.96,248.37z M521.63,290.81c0.43-16.66,2.8-36.28,8.07-36.72c0.06,0,0.13-0.01,0.19-0.01
	c0.61,0,1.17,0.24,1.72,0.74c4.04,3.64,5.78,19.76,6.07,33.63c0.17,9.16-1.58,29.56-7.86,30.55c-0.79,0.13-1.53-0.12-2.25-0.75
	C523.29,314.48,521.42,298.38,521.63,290.81z M563.95,245.27v6.85l-4.2,0.61v22.68c-7.45,0.91-11.27,1.4-18.13,2.28
	c-0.41-8.14-1.95-25.03-7.58-29.86c-0.04-0.03-0.08-0.06-0.11-0.09C544.22,246.9,554.25,246.07,563.95,245.27z M244.53,53.41
	c38.84-1.64,78.23-2.7,123.88-4.17c6.88-0.22,14.51-0.08,23.16-0.06c-0.05,8.37-0.1,16.75-0.15,25.12
	c-2.12-0.22-3.91-0.41-5.66-0.59c-2.79-0.29-5.5-0.58-9.42-0.98c-15.12-0.91-30.48-1.89-45.72-2.9
	c-10.68,0.15-65.09,0.93-87.62,1.59c-1.72,0.05-3.59,0.11-5.57,0.19V53.8C240.49,53.6,240.69,53.58,244.53,53.41z M190.42,87.84
	c4.46-12.89,35.8-13.88,52.63-14.42c22.51-0.66,76.91-1.44,87.5-1.59c15.17,1.01,30.53,1.99,45.62,2.9
	c3.87,0.39,6.58,0.68,9.37,0.97c1.81,0.19,3.65,0.38,5.86,0.61c-0.18,29.74-0.36,59.48-0.55,89.22
	c-0.15,23.42-0.29,46.84-0.44,70.26c-5.65,1.05-9.21,1.69-15.13,2.74c0.3-45.22,0.59-90.45,0.88-135.69
	c-0.01-0.54-0.33-13.31-7.4-14.62c-9.3-1.73-19.07-2.74-28.52-3.72c-2.38-0.25-4.76-0.49-7.12-0.75c-0.39-0.05-8.62-0.99-11.17,3.29
	l-0.18-0.01v0.34c-0.22,0.44-0.38,0.92-0.48,1.46l-0.01,0.06c-2.52,22.95-5.14,46.25-7.8,69.27c-1.08,12.01-1.29,23.79-1.44,36.83
	c-0.15,25.83-0.3,51.66-0.45,77.49c-14.35-0.31-27.39-0.58-39.81-0.84c-31.74-0.65-59.2-1.22-94.26-2.23
	c0.32-30.78,0.65-61.57,0.98-92.34c0.32-8.03,1.28-14.36,2.21-20.49c0.03-0.21,0.06-0.42,0.09-0.62
	c25.54-0.72,45.42-1.06,66.44-1.42c18.9-0.32,38.44-0.65,64.38-1.29l0.44-0.01l0.05-0.44c1.31-12.27,2.61-24.55,3.89-36.82
	l1.33-11.64c0.51-4.47,1-8.74,1.67-14.71l0.06-0.57l-0.57,0.01c-18.35,0.37-33.38,0.79-47.92,1.19c-24.2,0.68-47.07,1.31-81.29,1.6
	c0.18-1.25,0.35-2.5,0.53-3.75c0.02-0.16,0.05-0.32,0.08-0.48L190.42,87.84z M278.38,310.03l19.54,0.28c2.94,0,5.93-0.39,7.88-3.22
	c1.43-2.08,2.09-7.39-0.44-11.55l-0.29-0.47l-21.42-0.27c-0.08-0.01-2.07,0-3.61,1.58c-1.24,1.28-1.82,3.16-1.73,5.6
	c0.23,5.9,0.17,6.95,0.16,6.98L278.38,310.03z M281.45,297.8c0.93-0.98,2.14-1,2.18-1l20.29,0.25c1.94,3.65,0.98,7.8,0.23,8.9
	c-1.18,1.72-2.86,2.36-6.21,2.36l-17.45-0.25c-0.01-0.98-0.04-2.8-0.17-6.16C280.24,300.05,280.62,298.67,281.45,297.8z
	 M198.89,292.99l-17.4-0.37l-0.28,0.58c-1.68,3.45-1.79,7.46-0.28,10.99l0.05,0.1c1.65,2.95,4.2,3.41,6.48,3.46
	c4.11,0.09,6.78,0.15,9.94,0.23l5.87,0.14l0.03-0.99c0-0.04,0.03-1.02,0.08-6.97C203.44,293.25,198.95,292.99,198.89,292.99z
	 M201.32,306.07l-3.87-0.09c-3.16-0.08-5.83-0.14-9.94-0.23c-2.5-0.06-3.8-0.71-4.75-2.39c-1.17-2.79-1.17-5.93,0-8.7l16.06,0.34
	c0.11,0.01,2.61,0.26,2.57,5.14C201.35,303.37,201.33,305.13,201.32,306.07z M261.58,298.36l-40.22-0.86l0,1.02
	c0,1.17,0,2.14,0,3.05c0,1.93,0.01,3.55-0.04,6.06l-0.02,0.99l40.46,0.99v-1.02c0-2.74-0.04-4.46-0.1-6.64L261.58,298.36z
	 M223.34,306.67c0.03-1.99,0.03-3.44,0.02-5.11c0-0.63,0-1.29,0-2.02l36.26,0.78l0.04,1.68c0.05,1.88,0.09,3.41,0.09,5.56
	L223.34,306.67z"/>
</svg>
